<svg width="58" height="44" viewBox="0 0 58 44" fill="none" xmlns="http://www.w3.org/2000/svg" xmlns:xlink="http://www.w3.org/1999/xlink">
<path d="M58,22C58,34.15 45.016,44 29,44C12.984,44 0,34.15 0,22C0,9.85 12.984,0 29,0C45.016,0 58,9.85 58,22Z" fill="#D9D9D9"/>
<path d="M58,22C58,34.15 45.016,44 29,44C12.984,44 0,34.15 0,22C0,9.85 12.984,0 29,0C45.016,0 58,9.85 58,22Z" fill="url(#pattern_1_30_57)"/>
<path d="M58,22C58,34.15 45.016,44 29,44C12.984,44 0,34.15 0,22C0,9.85 12.984,0 29,0C45.016,0 58,9.85 58,22Z" fill="url(#pattern_2_30_57)"/>
<path d="M58,22C58,34.15 45.016,44 29,44C12.984,44 0,34.15 0,22C0,9.85 12.984,0 29,0C45.016,0 58,9.85 58,22Z" fill="url(#pattern_3_30_57)"/>
</svg>
