<svg width="72" height="80" viewBox="0 0 72 80" fill="none" xmlns="http://www.w3.org/2000/svg" xmlns:xlink="http://www.w3.org/1999/xlink">
<path d="M70.432,39.259C70.432,60.818 54.498,78.296 34.844,78.296C15.189,78.296 -0.744,60.818 -0.744,39.259C-0.744,17.699 15.189,0.222 34.844,0.222C54.498,0.222 70.432,17.699 70.432,39.259Z" clip-rule="evenodd" fill-rule="evenodd" fill="#4B587C"/>
<path d="M39.282,40.407L29.317,40.408L29.317,28.696L39.282,28.696C42.195,28.696 44.557,31.318 44.557,34.552C44.557,37.786 42.195,40.407 39.282,40.407ZM39.282,20.889L22.283,20.889L22.283,59.926L29.317,59.926L29.317,48.215L39.282,48.215C46.08,48.215 51.591,42.097 51.591,34.552C51.591,27.006 46.08,20.889 39.282,20.889Z" clip-rule="evenodd" fill-rule="evenodd" fill="#FFFFFF"/>
</svg>
